<?xml version="1.0" encoding="UTF-8" standalone="no"?>
<svg width="32px" height="32px" viewBox="0 0 32 32" version="1.1" xmlns="http://www.w3.org/2000/svg" xmlns:xlink="http://www.w3.org/1999/xlink">
    <!-- Generator: Sketch 41.2 (35397) - http://www.bohemiancoding.com/sketch -->
    <title>32@16x</title>
    <desc>Created with Sketch.</desc>
    <defs></defs>
    <g id="Icons" stroke="none" stroke-width="1" fill="none" fill-rule="evenodd" stroke-linecap="round" stroke-linejoin="round">
        <g id="32" stroke="#000000">
            <g id="ic_inventory" transform="translate(4.000000, 4.000000)">
                <g id="Group">
                    <g transform="translate(2.000000, 2.000000)" stroke-width="2">
                        <path d="M0,12 L0,17 L2,19 L18,19 L20,17 L20,12 L13,12 L13,15 L7,15 L7,12 L0,12 Z" id="Path-12-Copy"></path>
                        <path d="M0,5 L0,12 L7,12 L7,15 L13,15 L13,12 L20,12 L20,5 L13,5 L13,8 L7,8 L7,5 L0,5 Z" id="Path-12"></path>
                        <path d="M3,0 C3,0 0,5 0,5 L7,5 L7,8 L13,8 L13,5 L20,5 L17,0 L3,0 Z" id="Path-11"></path>
                    </g>
                </g>
            </g>
        </g>
    </g>
</svg>