<?xml version="1.0" standalone="no"?><!DOCTYPE svg PUBLIC "-//W3C//DTD SVG 1.1//EN" "http://www.w3.org/Graphics/SVG/1.1/DTD/svg11.dtd"><svg t="1501206604092" class="icon" style="" viewBox="0 0 1024 1024" version="1.1" xmlns="http://www.w3.org/2000/svg" p-id="1441" xmlns:xlink="http://www.w3.org/1999/xlink" width="200" height="200"><defs><style type="text/css"></style></defs><path d="M867.47648 457.20576c-14.99648 0-23.0656 12.27264-23.0656 27.392v273.9712c0 45.312-36.89984 86.28224-77.20448 86.28224h-511.4368c-40.30464 0-77.20448-41.98912-77.20448-87.30624V265.42592c0-45.312 36.89984-86.28224 77.20448-86.28224h285.75232c15.04768 0 27.21792-8.18176 27.21792-23.30112s-12.17024-23.30112-27.1616-23.30112H255.7696c-70.28736 0-123.33056 57.38496-123.33056 132.8896v493.13792c0 75.56096 53.04832 132.8896 123.33056 132.8896h511.4368c70.23616 0 124.30336-57.32864 124.35456-132.8896v-273.9712c0-15.11936-9.09824-27.392-24.08448-27.392z" fill="#4E8CEE" p-id="1442"></path><path d="M743.36256 175.86688l100.7872 100.7872-270.06976 270.06464H481.95584l-10.24-95.5392z" fill="#BAD4FF" p-id="1443"></path><path d="M434.5856 447.16032l2.82624 114.6112a27.35104 27.35104 0 0 0 26.01984 26.25024l114.21696 2.1504h1.14176a26.84416 26.84416 0 0 0 19.1744-8.05888l286.00832-287.12448c10.58816-10.68544 9.87136-27.33056-0.72704-38.016l-115.58912-116.70528c-10.15296-10.30144-28.19584-10.30144-38.40512 0L442.51648 426.66496a27.75552 27.75552 0 0 0-7.93088 20.49536z m313.89696-266.17344l96.00512 95.3344-270.66368 270.14144-91.86304-3.51232-4.1472-91.77088 270.6688-270.19264z" fill="#4E8CEE" p-id="1444"></path></svg>